<svg xmlns="http://www.w3.org/2000/svg" xmlns:xlink="http://www.w3.org/1999/xlink" width="1920" height="1080" viewBox="0 0 1920 1080">
  <defs>
    <filter id="Path_1" x="-13" y="-6" width="1946" height="1092" filterUnits="userSpaceOnUse">
      <feOffset input="SourceAlpha"/>
      <feGaussianBlur stdDeviation="10" result="blur"/>
      <feFlood flood-color="#c1c1c1"/>
      <feComposite operator="in" in2="blur"/>
      <feComposite in="SourceGraphic"/>
    </filter>
    <clipPath id="clip-GitHubProfile">
      <rect width="1920" height="1080"/>
    </clipPath>
  </defs>
  <g id="GitHubProfile" clip-path="url(#clip-GitHubProfile)">
    <rect width="1920" height="1080" fill="#fff"/>
    <g id="Group_2" data-name="Group 2">
      <g id="Group_1" data-name="Group 1">
        <g id="Group_3" data-name="Group 3">
          <g transform="matrix(1, 0, 0, 1, 0, 0)" filter="url(#Path_1)">
            <path id="Path_1-2" data-name="Path 1" d="M16,0H1870a16,16,0,0,1,16,16V1016a16,16,0,0,1-16,16H16a16,16,0,0,1-16-16V16A16,16,0,0,1,16,0Z" transform="translate(17 24)" fill="#fff"/>
          </g>
          <text id="Hi_there" data-name="Hi there" transform="translate(70 58)" font-size="100" font-family="InterUI-Medium, Inter UI" font-weight="500"><tspan x="0" y="106">Hi there</tspan></text>
          <text id="_I_m_currently_working_on_..._Full_Stack" data-name="🔭 I’m currently working on ... Full Stack" transform="translate(70 243)" font-size="50" font-family="SegoeUIEmoji, Segoe UI Emoji"><tspan x="0" y="54">🔭</tspan><tspan y="54" xml:space="preserve" font-family="SegoeUI, Segoe UI"> I’m currently working on ... </tspan><tspan y="54" font-family="SegoeUI-Bold, Segoe UI" font-weight="700">Full Stack</tspan></text>
        </g>
      </g>
    </g>
  </g>
</svg>
