<svg xmlns="http://www.w3.org/2000/svg" xmlns:xlink="http://www.w3.org/1999/xlink" width="993" height="120" viewBox="0 0 993 120">
  <defs>
    <linearGradient id="linear-gradient" y1="0.5" x2="1" y2="0.574" gradientUnits="objectBoundingBox">
      <stop offset="0" stop-color="#6072e2"/>
      <stop offset="1" stop-color="#fc8d6b"/>
    </linearGradient>
  </defs>
  <g id="Group_23" data-name="Group 23" transform="translate(-865 -631)">
    <path id="Path_17" data-name="Path 17" d="M0,0H993V120H0Z" transform="translate(865 631)" fill="#fff"/>
    <g id="Group_22" data-name="Group 22" transform="translate(443.364 209.194)">
      <path id="Intersection_2" data-name="Intersection 2" d="M-.385,53.25C-.385,19.162,18.978,0,44.8,0,64.564,0,81.1,11.3,87.558,32.273L63.958,35.5C60.933,25.214,53.268,20.977,44.8,20.977c-12.3,0-21.582,9.077-21.582,32.273S32.694,85.119,45.2,85.119c11.094,0,19.969-6.858,19.969-18.556H45.2V49.418H87.962V66.563c0,23.8-19.162,39.533-42.762,39.533C19.18,106.1-.385,87.137-.385,53.25ZM399.8,96.818h-1.009v7.867H375.794V1.412h23.2V35.5h.807c2.622-5.85,9.278-9.279,17.347-9.279C432.674,26.222,447,38.93,447,65.957c0,26.424-13.514,39.937-29.852,39.937C409.075,105.895,402.419,102.668,399.8,96.818Zm-3.429-30.861c0,11.7,3.025,21.583,13.918,21.583,9.883,0,14.926-8.068,14.926-21.583s-5.043-21.38-14.926-21.38C399.595,44.577,396.368,54.057,396.368,65.957ZM292.289,75.64V27.23h23.2v47.6c0,8.27,4.841,12.506,11.093,12.506,8.673,0,11.5-8.068,11.5-18.96V27.23h23.2v77.455H339.89v-8.27h-.806c-4.438,5.648-11.9,9.278-20.776,9.278C305.2,105.693,292.289,98.029,292.289,75.64ZM145.85,83.1V43.367h-8.673V27.23h8.673V10.691h23.2V27.23h12.1V43.367h-12.1V80.279c0,5.849,2.823,6.656,6.656,6.656a19.9,19.9,0,0,0,4.84-.6l3.429,17.145c-1.411.6-7.261,2.219-15.733,2.219C155.734,105.693,145.85,96.818,145.85,83.1Zm108.518,21.583V62.73H217.254v41.955h-23.4V1.412h23.4V43.367h37.114V1.412h23.4V104.685Zm-151.884,0V27.23h23.2v77.455ZM101.678,11.5c0-6.253,5.647-11.5,12.506-11.5s12.3,5.244,12.3,11.5S121.041,23,114.183,23,101.678,17.751,101.678,11.5Z" transform="translate(877.574 429.092)" fill="url(#linear-gradient)"/>
    </g>
  </g>
</svg>
